<svg width="42" height="42" viewBox="0 0 42 42" fill="none" xmlns="http://www.w3.org/2000/svg">
<path d="M7 10.9375C7 9.89321 7.41484 8.89169 8.15327 8.15327C8.89169 7.41484 9.89321 7 10.9375 7H31.0625C31.5796 7 32.0916 7.10185 32.5693 7.29972C33.047 7.4976 33.4811 7.78764 33.8467 8.15327C34.2124 8.5189 34.5024 8.95296 34.7003 9.43068C34.8981 9.9084 35 10.4204 35 10.9375V34.5625C35 35.0796 34.8981 35.5916 34.7003 36.0693C34.5024 36.547 34.2124 36.9811 33.8467 37.3467C33.4811 37.7124 33.047 38.0024 32.5693 38.2003C32.0916 38.3982 31.5796 38.5 31.0625 38.5H10.9375C9.89321 38.5 8.89169 38.0852 8.15327 37.3467C7.41484 36.6083 7 35.6068 7 34.5625V10.9375Z" fill="url(#paint0_linear_929_67)"/>
<path d="M7 10.9375C7 9.89321 7.41484 8.89169 8.15327 8.15327C8.89169 7.41484 9.89321 7 10.9375 7H31.0625C31.5796 7 32.0916 7.10185 32.5693 7.29972C33.047 7.4976 33.4811 7.78764 33.8467 8.15327C34.2124 8.5189 34.5024 8.95296 34.7003 9.43068C34.8981 9.9084 35 10.4204 35 10.9375V34.5625C35 35.0796 34.8981 35.5916 34.7003 36.0693C34.5024 36.547 34.2124 36.9811 33.8467 37.3467C33.4811 37.7124 33.047 38.0024 32.5693 38.2003C32.0916 38.3982 31.5796 38.5 31.0625 38.5H10.9375C9.89321 38.5 8.89169 38.0852 8.15327 37.3467C7.41484 36.6083 7 35.6068 7 34.5625V10.9375Z" fill="url(#paint1_radial_929_67)" fill-opacity="0.7"/>
<path d="M7 10.9375C7 9.89321 7.41484 8.89169 8.15327 8.15327C8.89169 7.41484 9.89321 7 10.9375 7H31.0625C31.5796 7 32.0916 7.10185 32.5693 7.29972C33.047 7.4976 33.4811 7.78764 33.8467 8.15327C34.2124 8.5189 34.5024 8.95296 34.7003 9.43068C34.8981 9.9084 35 10.4204 35 10.9375V34.5625C35 35.0796 34.8981 35.5916 34.7003 36.0693C34.5024 36.547 34.2124 36.9811 33.8467 37.3467C33.4811 37.7124 33.047 38.0024 32.5693 38.2003C32.0916 38.3982 31.5796 38.5 31.0625 38.5H10.9375C9.89321 38.5 8.89169 38.0852 8.15327 37.3467C7.41484 36.6083 7 35.6068 7 34.5625V10.9375Z" fill="url(#paint2_radial_929_67)" fill-opacity="0.4"/>
<path d="M14 7.4375C14 8.48179 14.4148 9.48331 15.1533 10.2217C15.8917 10.9602 16.8932 11.375 17.9375 11.375H24.0625C25.1068 11.375 26.1083 10.9602 26.8467 10.2217C27.5852 9.48331 28 8.48179 28 7.4375C28 6.39321 27.5852 5.39169 26.8467 4.65327C26.1083 3.91484 25.1068 3.5 24.0625 3.5H17.9375C16.8932 3.5 15.8917 3.91484 15.1533 4.65327C14.4148 5.39169 14 6.39321 14 7.4375Z" fill="url(#paint3_linear_929_67)"/>
<path d="M29.803 19.302C29.9319 19.1819 30.0353 19.037 30.1071 18.876C30.1788 18.715 30.2174 18.5412 30.2205 18.365C30.2236 18.1887 30.1912 18.0137 30.1252 17.8502C30.0592 17.6868 29.9609 17.5384 29.8363 17.4137C29.7116 17.2891 29.5632 17.1908 29.3998 17.1248C29.2363 17.0588 29.0613 17.0264 28.885 17.0295C28.7088 17.0326 28.535 17.0712 28.374 17.1429C28.213 17.2147 28.0681 17.3181 27.948 17.447L19.2505 26.1445L15.803 22.697C15.5542 22.4652 15.2251 22.339 14.885 22.345C14.545 22.351 14.2206 22.4887 13.9801 22.7292C13.7397 22.9697 13.6019 23.2941 13.5959 23.6341C13.5899 23.9741 13.7161 24.3032 13.948 24.552L18.323 28.927C18.5691 29.1728 18.9026 29.3109 19.2505 29.3109C19.5983 29.3109 19.9319 29.1728 20.178 28.927L29.803 19.302Z" fill="url(#paint4_linear_929_67)" fill-opacity="0.9"/>
<defs>
<linearGradient id="paint0_linear_929_67" x1="7" y1="10.15" x2="31.7555" y2="41.0952" gradientUnits="userSpaceOnUse">
<stop stop-color="#36DFF1"/>
<stop offset="1" stop-color="#0094F0"/>
</linearGradient>
<radialGradient id="paint1_radial_929_67" cx="0" cy="0" r="1" gradientUnits="userSpaceOnUse" gradientTransform="translate(21 5.25) rotate(90) scale(10.7956 11.8125)">
<stop stop-color="#0A1852"/>
<stop offset="0.9" stop-color="#0A1852" stop-opacity="0"/>
</radialGradient>
<radialGradient id="paint2_radial_929_67" cx="0" cy="0" r="1" gradientUnits="userSpaceOnUse" gradientTransform="translate(21 8.0815) rotate(90) scale(4.88819 8.66771)">
<stop stop-color="#0A1852"/>
<stop offset="1" stop-color="#0A1852" stop-opacity="0"/>
</radialGradient>
<linearGradient id="paint3_linear_929_67" x1="21" y1="3.5" x2="21" y2="11.375" gradientUnits="userSpaceOnUse">
<stop stop-color="#FFE06B"/>
<stop offset="1" stop-color="#FAB500"/>
</linearGradient>
<linearGradient id="paint4_linear_929_67" x1="31.5005" y1="32.3745" x2="17.9642" y2="13.5305" gradientUnits="userSpaceOnUse">
<stop stop-color="#9DEAFF"/>
<stop offset="1" stop-color="white"/>
</linearGradient>
</defs>
</svg>
